<?xml version="1.0" standalone="no"?>
<!DOCTYPE svg PUBLIC "-//W3C//DTD SVG 20010904//EN"
 "http://www.w3.org/TR/2001/REC-SVG-20010904/DTD/svg10.dtd">
<svg version="1.0" xmlns="http://www.w3.org/2000/svg"
 width="1280.000000pt" height="899.000000pt" viewBox="0 0 1280.000000 899.000000"
 preserveAspectRatio="xMidYMid meet">
<g transform="translate(0.000000,899.000000) scale(0.100000,-0.100000)"
fill="#000000" stroke="none">
<path d="M0 8896 c0 -86 2 -94 21 -99 17 -5 19 -9 9 -26 -6 -12 -15 -21 -20
-21 -6 0 -10 -37 -10 -85 l0 -85 68 0 68 0 200 200 c109 111 201 203 203 205
2 3 -118 5 -267 5 l-272 0 0 -94z"/>
<path d="M552 8681 l-303 -306 128 -3 c70 -1 132 -7 137 -12 7 -7 -21 -42 -82
-103 -51 -51 -92 -96 -92 -100 0 -4 61 -7 135 -7 100 0 135 -3 135 -12 0 -7
-42 -54 -92 -105 l-93 -93 130 -1 c72 0 262 0 424 0 294 1 331 -1 331 -21 0
-6 -41 -53 -92 -104 l-92 -94 140 0 c76 -1 205 -1 286 0 96 1 149 -3 153 -10
4 -6 -33 -52 -84 -104 -50 -51 -91 -95 -91 -99 0 -4 201 -6 448 -6 l447 2 99
103 100 104 -140 1 c-76 0 -275 0 -441 -1 -284 0 -303 1 -303 18 0 19 160 182
198 202 16 8 70 11 163 9 l140 -3 107 107 107 107 142 0 c93 0 144 -4 149 -11
4 -6 -34 -51 -87 -105 l-94 -94 125 0 c69 0 132 -5 140 -10 12 -8 -3 -27 -77
-102 -51 -52 -93 -97 -93 -101 0 -4 58 -7 129 -7 84 0 132 -4 137 -11 4 -6
-78 -96 -195 -212 -110 -110 -199 -202 -198 -203 1 -2 65 -4 142 -5 l140 -2
104 107 105 106 155 0 156 0 207 207 c115 114 208 211 208 215 0 5 -61 8 -135
8 -102 0 -135 3 -135 13 0 7 94 106 208 220 l208 207 135 0 c74 0 141 -5 149
-10 11 -7 -28 -52 -188 -212 l-202 -203 129 -5 c71 -3 133 -9 137 -13 5 -4
-81 -96 -189 -205 -108 -108 -197 -203 -197 -210 0 -9 33 -12 130 -12 96 0
130 -3 130 -12 0 -7 -41 -54 -92 -105 l-92 -92 143 -3 143 -3 98 100 c54 54
96 103 94 107 -3 4 -63 8 -135 8 -71 0 -129 3 -129 8 0 4 46 53 103 110 l102
102 141 0 c77 0 144 -3 147 -7 4 -3 -33 -48 -83 -98 -49 -51 -90 -97 -90 -104
0 -8 40 -11 130 -11 97 0 130 -3 130 -12 0 -7 -88 -101 -195 -208 -107 -107
-195 -198 -195 -202 0 -5 61 -8 135 -8 94 0 135 -3 135 -11 0 -7 -41 -53 -91
-105 l-91 -92 138 -4 139 -4 105 103 105 103 -133 0 c-175 0 -176 2 -45 131
l100 99 141 0 c92 0 143 -4 148 -11 4 -6 -33 -50 -85 -103 -50 -50 -91 -95
-91 -99 0 -4 64 -7 143 -6 l142 1 99 104 99 104 -137 0 c-103 0 -136 3 -136
13 0 7 40 53 89 101 50 49 88 93 85 98 -3 4 -130 8 -283 8 -153 0 -281 3 -285
7 -4 4 37 51 91 105 l98 98 -137 0 c-84 0 -139 4 -143 10 -4 6 34 53 84 104
50 51 91 95 91 99 0 4 -128 7 -285 7 -221 0 -285 3 -285 13 0 6 90 102 200
212 l201 200 -136 3 c-97 2 -135 6 -135 15 0 6 42 53 92 104 l93 93 -130 1
c-72 1 -197 1 -280 0 -88 -1 -156 2 -165 8 -12 9 2 27 78 103 50 52 92 97 92
101 0 4 -58 7 -129 7 -84 0 -132 4 -137 11 -4 6 32 49 82 100 l89 89 -146 0
-145 0 -307 -307 -307 -308 127 -3 c70 -1 132 -7 137 -12 7 -7 -21 -42 -82
-103 -51 -51 -92 -96 -92 -100 0 -4 61 -7 135 -7 100 0 135 -3 135 -12 0 -7
-42 -54 -92 -105 l-93 -93 125 0 c69 0 132 -5 140 -10 12 -8 -5 -30 -90 -115
l-105 -105 -137 0 c-87 0 -139 4 -143 11 -4 6 35 54 86 107 l94 97 -137 3
c-99 2 -138 6 -138 15 0 6 42 53 92 104 l93 93 -132 0 c-84 0 -134 4 -138 11
-4 6 35 54 86 107 l94 97 -450 3 -451 2 -214 -215 -214 -215 -148 0 c-106 0
-148 3 -148 12 0 6 90 102 200 212 l200 201 -135 3 c-97 2 -135 6 -135 15 0 6
42 53 92 104 l93 93 -122 0 c-126 0 -153 4 -153 24 0 6 86 97 191 201 l190
190 -143 3 -144 3 -100 -101 -100 -100 -141 0 c-93 0 -144 4 -149 11 -4 6 32
49 82 100 l89 89 -150 -2 -150 -1 -303 -306z m488 -113 c0 -7 -42 -54 -92
-105 l-93 -93 135 -1 c74 0 200 0 280 0 84 1 151 -3 160 -9 12 -8 -4 -29 -91
-115 l-105 -104 -292 0 c-197 0 -293 3 -298 10 -4 6 35 52 85 103 50 50 91 95
91 99 0 4 -58 7 -129 7 -84 0 -132 4 -137 11 -4 6 36 53 92 110 l99 99 147 0
c111 0 148 -3 148 -12z m2750 -1 c0 -7 -44 -57 -99 -110 l-98 -97 -147 0
c-109 0 -146 3 -146 12 0 7 44 57 97 110 l98 98 147 0 c116 0 148 -3 148 -13z"/>
<path d="M1885 8793 c-104 -106 -191 -198 -193 -203 -2 -6 48 -10 136 -10
l140 0 198 200 c110 111 201 203 203 205 2 3 -63 4 -145 4 l-149 -2 -190 -194z"/>
<path d="M2495 8793 c-104 -106 -191 -198 -193 -203 -2 -6 101 -10 290 -10
l294 0 200 200 c109 111 201 203 203 205 2 3 -133 4 -300 4 l-304 -2 -190
-194z"/>
<path d="M4126 8894 l-90 -94 140 0 c76 -1 273 -1 436 0 202 0 299 -3 303 -11
4 -6 -35 -54 -86 -107 l-94 -97 138 -3 c100 -2 137 -6 137 -15 0 -7 -88 -100
-195 -207 -107 -107 -195 -198 -195 -202 0 -5 132 -8 294 -8 l293 0 94 96 c52
52 96 99 97 105 2 5 -49 9 -127 9 -79 0 -132 4 -136 10 -4 6 35 53 85 105 l92
93 -130 4 c-72 2 -134 7 -138 11 -4 4 37 53 91 107 l100 100 -137 0 c-84 0
-139 4 -143 10 -4 6 33 51 81 100 l88 90 -455 -1 -454 -2 -89 -93z"/>
<path d="M5346 8894 l-90 -94 140 -1 c76 0 205 0 286 1 102 1 148 -2 153 -10
5 -8 -69 -89 -195 -215 l-203 -203 143 -4 143 -3 209 210 208 210 -127 3 c-70
1 -132 7 -137 12 -7 7 21 41 79 100 l90 90 -305 -1 -305 -2 -89 -93z"/>
<path d="M6266 8894 l-89 -94 131 0 c85 0 133 -4 138 -11 4 -7 -119 -137 -300
-318 -168 -168 -306 -309 -306 -314 0 -4 58 -7 129 -7 80 0 132 -4 136 -10 4
-6 -35 -53 -86 -105 l-93 -95 125 0 c68 0 131 -5 139 -10 12 -8 -3 -27 -77
-102 -51 -52 -93 -97 -93 -101 0 -4 58 -7 129 -7 80 0 132 -4 136 -10 4 -6
-34 -53 -84 -104 -50 -51 -91 -95 -91 -99 0 -4 64 -7 143 -6 l142 1 99 104 99
104 -131 0 c-83 0 -133 4 -137 11 -4 6 35 54 86 107 l94 97 -137 3 c-99 2
-138 6 -138 15 0 6 42 53 92 104 l93 93 -132 0 c-86 0 -134 4 -139 11 -4 7 80
98 202 220 l209 209 150 0 151 0 110 110 110 110 141 0 c91 0 144 -4 149 -11
3 -6 -84 -101 -203 -220 l-209 -209 -155 0 -154 0 -98 -98 c-53 -53 -97 -101
-97 -105 0 -4 61 -7 135 -7 103 0 135 -3 135 -13 0 -7 -41 -53 -90 -102 l-91
-90 141 -5 141 -5 425 425 424 425 -135 3 c-100 2 -135 6 -135 15 0 7 36 48
80 92 44 44 80 83 80 87 0 5 -132 8 -293 8 l-293 0 -100 -100 -100 -100 -141
0 c-93 0 -144 4 -149 11 -4 6 32 49 82 100 l89 89 -150 -1 -150 -1 -89 -94z"/>
<path d="M7797 8902 c-48 -48 -87 -91 -87 -95 0 -4 58 -7 129 -7 84 0 132 -4
137 -11 4 -6 -33 -50 -85 -103 -50 -50 -91 -95 -91 -99 0 -4 61 -7 135 -7 74
0 135 -3 135 -8 0 -4 -46 -53 -103 -110 l-102 -102 -151 0 -150 0 -532 -532
c-292 -292 -530 -533 -528 -535 2 -2 276 -4 609 -4 423 0 608 -3 613 -10 4 -6
-34 -52 -85 -103 -50 -50 -91 -95 -91 -99 0 -4 58 -7 128 -7 71 0 132 -3 136
-7 3 -4 -35 -49 -86 -100 -50 -51 -90 -94 -87 -97 2 -2 66 -6 142 -7 l138 -3
102 102 102 102 -133 0 c-112 0 -134 2 -139 16 -4 11 23 45 88 110 l94 94
-138 0 c-104 0 -137 3 -137 13 0 7 40 53 89 101 50 49 88 93 85 98 -3 4 -210
8 -460 8 -356 0 -454 3 -454 13 0 6 141 153 313 325 l313 312 147 0 c111 0
147 -3 147 -12 0 -7 -90 -103 -200 -212 -110 -110 -198 -201 -196 -203 2 -2
144 -3 317 -3 l314 0 207 207 c114 114 206 209 204 210 -2 2 -139 4 -304 4
-205 0 -303 3 -308 10 -4 7 85 103 202 220 l209 209 325 0 325 0 98 98 c53 53
97 101 97 105 0 4 -67 7 -149 7 -93 0 -152 4 -156 10 -4 6 33 51 81 100 l88
90 -145 0 -145 0 -100 -100 -100 -100 -297 0 c-226 0 -297 3 -297 12 0 7 39
52 87 100 l88 88 -150 0 -150 0 -88 -88z"/>
<path d="M9356 8894 l-90 -94 137 0 c104 0 137 -3 137 -13 0 -7 -38 -50 -85
-97 -47 -47 -85 -90 -85 -97 0 -10 61 -13 285 -13 214 0 285 -3 285 -12 0 -7
-44 -56 -98 -110 l-98 -98 -155 0 -155 0 -110 -110 -110 -110 -137 0 c-117 0
-139 2 -144 16 -4 11 23 45 88 110 l94 94 -146 0 -146 0 -94 -96 c-52 -52 -95
-99 -97 -105 -2 -5 49 -9 127 -9 71 0 132 -4 135 -8 3 -5 -85 -98 -195 -208
-109 -109 -199 -202 -199 -206 0 -5 58 -8 129 -8 84 0 132 -4 137 -11 4 -6
-33 -51 -85 -103 -50 -51 -88 -95 -85 -99 4 -4 65 -7 136 -7 82 0 128 -4 128
-10 0 -6 -41 -53 -91 -105 l-92 -95 132 0 c72 -1 204 -1 294 -1 l163 -1 105
106 104 106 155 0 155 0 318 318 317 317 -132 5 c-98 4 -133 8 -136 19 -2 7
39 56 96 113 l101 99 152 -2 152 -2 99 99 98 99 -113 2 c-125 3 -157 8 -157
25 0 6 41 53 92 104 l92 94 -132 0 c-85 0 -133 4 -138 11 -4 6 32 49 82 100
l89 89 -150 -1 -150 -1 -89 -94 -89 -94 131 0 c85 0 133 -4 138 -11 4 -7 -36
-54 -95 -113 l-101 -101 -121 -3 c-129 -4 -169 1 -169 21 0 6 42 53 92 104
l93 93 -132 0 c-86 0 -134 4 -139 11 -4 6 32 49 82 100 l89 89 -305 -1 -305
-2 -89 -93z m759 -755 c4 -6 -84 -102 -202 -220 l-209 -209 -446 1 c-316 0
-449 3 -454 11 -4 6 38 55 98 114 l105 104 302 -1 303 -2 106 107 107 106 142
0 c91 0 144 -4 148 -11z"/>
<path d="M10886 8894 l-90 -94 131 0 c86 0 134 -4 139 -11 4 -6 -33 -50 -85
-103 -50 -50 -91 -95 -91 -99 0 -4 61 -7 135 -7 101 0 135 -3 135 -12 0 -7
-187 -199 -415 -427 -228 -228 -413 -416 -412 -417 2 -2 66 -4 142 -4 l140 -2
215 216 215 216 147 0 c113 0 148 -3 148 -13 0 -7 -41 -53 -90 -102 l-91 -90
142 -5 143 -5 104 108 105 107 156 0 155 0 111 110 112 110 136 0 c89 0 138
-4 143 -11 4 -7 -80 -98 -202 -220 l-209 -209 -151 0 -150 0 -205 -205 c-112
-113 -205 -210 -207 -215 -2 -6 46 -10 132 -10 75 0 136 -3 136 -8 0 -4 -40
-48 -90 -97 -49 -49 -90 -93 -90 -97 0 -5 58 -8 129 -8 84 0 132 -4 137 -11 4
-6 -169 -186 -409 -427 -229 -228 -414 -419 -411 -424 3 -4 65 -8 138 -8 l134
0 108 110 109 110 148 0 c112 0 147 -3 147 -13 0 -7 -40 -53 -89 -101 -50 -49
-88 -93 -85 -98 3 -4 63 -8 135 -8 89 0 129 -3 129 -11 0 -7 -41 -54 -92 -105
l-92 -94 132 0 c85 0 133 -4 138 -11 4 -7 -78 -96 -197 -215 l-204 -204 133 0
c112 0 134 -2 139 -16 4 -11 -23 -45 -88 -110 l-94 -94 150 2 150 1 205 209
204 208 -132 0 c-112 0 -134 2 -139 16 -4 11 23 45 88 110 l94 94 -138 0
c-104 0 -137 3 -137 13 0 7 40 53 89 101 50 49 88 93 85 98 -3 4 -63 8 -135 8
-95 0 -129 3 -129 12 0 7 42 54 92 105 l93 93 -132 0 c-86 0 -134 4 -139 11
-4 7 78 96 197 215 l204 204 -133 0 c-112 0 -134 2 -139 16 -4 11 23 45 88
110 l94 94 -138 0 c-103 0 -137 3 -137 13 0 7 93 106 208 220 l207 207 303 -1
c370 -1 352 -7 352 125 l0 86 -60 0 c-44 0 -60 4 -60 13 0 8 27 40 60 71 51
48 60 63 60 92 l0 34 -99 0 c-62 0 -102 4 -107 11 -4 6 33 50 85 103 50 50 91
95 91 99 0 4 -58 7 -129 7 -86 0 -132 4 -137 11 -4 7 54 72 145 161 l151 150
0 146 0 146 -94 -92 -93 -92 -141 0 c-92 0 -143 4 -148 11 -4 6 32 49 82 100
l89 89 -455 -1 -455 -2 -89 -93 -90 -94 140 0 c76 -1 273 -1 436 0 208 0 299
-3 304 -11 4 -7 -36 -54 -95 -113 l-101 -101 -153 -1 -152 -1 -106 -106 -105
-107 -147 0 c-110 0 -147 3 -147 12 0 7 42 54 92 105 l93 93 -125 0 c-69 0
-132 5 -140 10 -12 8 3 27 78 102 50 52 92 97 92 101 0 4 -58 7 -129 7 -84 0
-132 4 -137 11 -4 6 32 49 82 100 l89 89 -150 -1 -150 -2 -89 -93z"/>
<path d="M4 8141 c-2 -2 -4 -48 -4 -101 l0 -97 50 -6 50 -6 99 102 c84 86 96
102 78 104 -47 5 -269 8 -273 4z"/>
<path d="M5417 8045 l-98 -103 138 -4 138 -4 105 103 105 103 -125 0 c-69 0
-134 2 -145 5 -15 3 -44 -21 -118 -100z"/>
<path d="M4886 7824 l-100 -104 147 0 146 0 93 96 c51 53 95 100 96 105 2 5
-57 8 -140 8 l-143 -2 -99 -103z"/>
<path d="M100 7616 c-55 -55 -100 -103 -100 -108 0 -4 128 -8 285 -8 224 0
285 -3 285 -13 0 -7 -41 -53 -90 -102 l-91 -90 143 -5 143 -5 97 100 c53 55
94 103 91 108 -2 4 -62 7 -134 7 -71 0 -129 3 -129 7 0 4 44 52 97 105 l98 98
-140 0 c-77 1 -211 2 -298 3 l-158 2 -99 -99z"/>
<path d="M5601 7617 c-53 -54 -97 -103 -99 -108 -2 -5 50 -9 126 -9 71 0 132
-3 136 -7 4 -4 -134 -148 -306 -320 l-313 -313 133 0 c112 0 134 -2 139 -16 4
-11 -23 -45 -88 -110 l-94 -94 146 0 146 0 94 96 c52 52 96 99 97 105 2 5 -49
9 -126 9 -71 0 -132 3 -136 7 -4 4 40 53 96 110 l103 103 141 0 c77 0 144 -3
148 -7 4 -4 -37 -51 -91 -105 l-98 -98 133 0 c112 0 134 -2 139 -16 4 -11 -23
-45 -88 -110 l-94 -94 287 0 c199 0 289 -3 294 -11 4 -6 -33 -51 -85 -103 -50
-51 -88 -95 -85 -99 4 -4 65 -7 136 -7 70 0 128 -3 128 -8 0 -4 -40 -48 -90
-97 -49 -49 -90 -93 -90 -97 0 -5 67 -8 149 -8 94 0 152 -4 156 -10 4 -6 -34
-53 -84 -104 -50 -51 -91 -95 -91 -99 0 -4 58 -7 129 -7 72 0 132 -4 135 -8 3
-5 -35 -49 -85 -98 -49 -48 -89 -92 -89 -96 0 -5 56 -8 125 -8 165 0 166 -3
44 -126 l-94 -94 137 0 c75 0 139 -4 142 -8 3 -5 -35 -49 -85 -98 -49 -48 -89
-94 -89 -101 0 -10 33 -13 138 -13 l137 0 105 105 105 105 -137 0 c-84 0 -139
4 -143 10 -4 6 34 53 84 104 50 51 91 95 91 99 0 4 -58 7 -128 7 -71 0 -132 3
-136 7 -4 4 37 51 91 105 l98 98 -133 0 c-175 0 -176 2 -44 132 l100 99 152
-2 152 -2 98 98 c55 54 97 102 94 107 -3 4 -133 8 -290 8 -156 0 -284 3 -284
7 0 5 138 146 307 315 169 169 305 310 302 313 -3 3 -145 6 -314 6 l-309 1
-98 -98 -98 -99 128 -3 c69 -1 131 -7 136 -12 7 -7 -26 -46 -94 -115 l-105
-105 -137 0 c-89 0 -139 4 -144 11 -4 6 33 50 85 103 50 50 91 95 91 99 0 4
-128 7 -284 7 -157 0 -287 4 -290 8 -3 5 85 98 195 208 109 109 199 202 199
206 0 5 -127 8 -283 8 -156 0 -287 3 -291 7 -3 4 35 48 85 99 52 52 89 97 85
103 -5 7 -51 11 -132 11 -91 0 -124 3 -124 12 0 7 41 54 92 105 l92 92 -144 3
-144 3 -95 -98z"/>
<path d="M10831 7617 c-53 -54 -97 -102 -99 -107 -2 -6 53 -10 140 -9 l143 1
99 104 98 103 -142 3 -142 3 -97 -98z"/>
<path d="M8167 7402 c-53 -53 -97 -101 -97 -105 0 -4 58 -7 129 -7 84 0 132
-4 137 -11 4 -6 -33 -50 -85 -103 -50 -50 -91 -95 -91 -99 0 -4 58 -7 128 -7
71 0 132 -3 136 -7 3 -4 -85 -99 -196 -212 l-203 -206 138 -3 c101 -2 137 -6
137 -15 0 -7 -44 -56 -98 -110 l-97 -97 -148 0 c-110 0 -147 3 -147 12 0 7 42
54 92 105 l93 93 -127 0 c-69 0 -133 2 -140 5 -9 4 -52 -33 -114 -95 -54 -56
-100 -105 -102 -110 -2 -6 50 -10 132 -10 75 0 136 -3 136 -8 0 -4 -40 -48
-90 -97 -49 -49 -90 -93 -90 -97 0 -5 58 -8 129 -8 86 0 132 -4 137 -11 4 -7
-36 -54 -99 -116 l-106 -105 -151 3 -151 3 -94 -94 c-52 -52 -95 -98 -95 -102
0 -5 55 -8 123 -8 67 0 129 -5 137 -10 12 -8 -4 -29 -85 -110 l-100 -100 137
0 c86 0 139 -4 143 -11 4 -5 -83 -101 -194 -212 -110 -110 -199 -202 -198
-203 1 -1 64 -4 141 -5 l138 -2 424 424 424 424 -132 5 c-108 4 -133 8 -135
20 -2 8 131 148 302 320 l306 305 -132 5 c-79 3 -134 9 -136 15 -2 6 44 57
101 114 l105 103 148 -3 148 -3 99 102 99 102 -129 1 c-71 1 -198 0 -281 -1
-198 -3 -199 -1 -72 126 l94 94 -138 0 c-104 0 -137 3 -137 13 0 7 40 53 89
101 50 49 88 93 85 98 -3 4 -67 8 -142 8 l-137 0 -98 -98z"/>
<path d="M9990 7389 l-105 -109 -160 -2 -160 -1 -205 -209 -204 -208 132 0
c175 0 176 -2 44 -132 l-100 -99 -152 2 -152 2 -98 -98 c-55 -54 -97 -102 -94
-107 3 -4 63 -8 135 -8 95 0 129 -3 129 -12 0 -7 -42 -54 -92 -105 l-93 -93
135 -1 c74 0 203 0 287 1 101 1 153 -2 158 -10 4 -6 -32 -51 -84 -104 -50 -51
-91 -95 -91 -99 0 -4 59 -7 130 -7 96 0 130 -3 130 -12 0 -7 -42 -54 -92 -105
l-93 -93 133 0 c112 0 134 -2 139 -16 4 -11 -23 -45 -88 -110 l-94 -94 287 0
c199 0 289 -3 294 -11 4 -6 -33 -51 -85 -103 -50 -51 -88 -95 -85 -99 4 -4
133 -7 286 -7 216 0 278 -3 278 -12 0 -7 -88 -101 -195 -208 -107 -107 -195
-198 -195 -202 0 -5 61 -8 135 -8 74 0 135 -3 135 -7 0 -4 -91 -100 -202 -213
l-203 -205 138 -3 c100 -2 137 -6 137 -15 0 -7 -90 -102 -200 -211 -110 -110
-198 -201 -197 -203 2 -1 66 -3 143 -4 l141 -1 106 109 106 108 156 1 157 1
101 102 102 101 -135 1 c-74 0 -203 0 -286 -1 -110 -1 -154 2 -159 11 -5 7 30
49 98 116 l106 105 148 -3 148 -2 207 208 c114 115 206 210 205 212 -2 1 -65
3 -142 4 l-138 1 -112 -111 -111 -111 -137 0 c-116 0 -139 2 -144 16 -4 11
175 196 626 647 l632 632 -143 3 -143 3 -111 -111 -110 -110 -137 0 c-117 0
-139 2 -144 16 -4 11 23 45 88 110 l94 94 -138 0 c-104 0 -137 3 -137 13 0 7
40 53 89 101 50 49 88 93 85 98 -3 4 -63 8 -135 8 -95 0 -129 3 -129 12 0 7
42 54 92 105 l93 93 -132 0 c-86 0 -134 4 -139 11 -4 7 75 93 190 208 108 108
196 200 196 204 0 4 -56 7 -125 7 -165 0 -166 3 -44 126 l94 94 -147 0 -147 0
-93 -96 c-51 -53 -94 -100 -96 -105 -2 -5 52 -9 127 -9 71 0 132 -4 135 -8 3
-5 -85 -98 -195 -208 -109 -109 -199 -202 -199 -206 0 -5 58 -8 129 -8 84 0
132 -4 137 -11 4 -6 -33 -51 -85 -103 -50 -51 -88 -95 -85 -99 4 -4 65 -7 136
-7 70 0 128 -3 128 -7 0 -4 -46 -54 -102 -110 l-103 -103 -446 0 c-245 0 -449
3 -453 7 -3 4 35 48 85 99 52 52 89 97 85 103 -5 7 -51 11 -132 11 -92 0 -124
3 -124 13 0 6 88 100 195 207 107 107 195 198 195 202 0 5 -61 8 -135 8 -95 0
-135 3 -135 11 0 7 44 56 99 110 l98 99 147 0 c111 0 146 -3 146 -13 0 -7 -41
-53 -90 -102 l-91 -90 143 -5 143 -6 98 95 c53 53 97 99 97 103 0 5 -55 8
-122 8 -68 0 -130 5 -138 10 -12 8 26 50 187 212 111 111 200 205 197 210 -3
4 -67 7 -142 7 l-137 -2 -105 -108z m714 -1407 c3 -5 -35 -49 -85 -98 -49 -48
-89 -92 -89 -96 0 -5 55 -8 123 -8 67 0 129 -5 137 -10 12 -7 -6 -30 -91 -115
l-105 -105 -141 0 c-88 0 -144 4 -148 10 -4 6 34 53 84 104 50 51 91 95 91 99
0 4 -195 7 -433 7 -239 0 -437 3 -441 7 -4 4 40 53 96 110 l103 103 447 0
c246 0 449 -4 452 -8z"/>
<path d="M12135 7400 c-54 -54 -97 -101 -94 -104 2 -2 66 -6 142 -7 l139 -2
98 98 c55 54 97 102 94 107 -3 4 -67 8 -142 8 l-137 0 -100 -100z"/>
<path d="M32 7247 c-30 -31 -32 -38 -32 -105 l0 -72 78 0 77 0 98 98 c53 53
97 101 97 105 0 4 -64 7 -143 7 l-143 0 -32 -33z"/>
<path d="M883 7181 c-51 -54 -93 -100 -93 -104 0 -4 128 -7 285 -7 224 0 285
-3 285 -13 0 -7 -41 -53 -90 -102 l-91 -90 143 -5 143 -6 198 196 c109 107
203 203 208 213 9 16 -15 17 -443 16 l-453 -2 -92 -96z"/>
<path d="M2107 7182 c-53 -53 -97 -101 -97 -105 0 -4 64 -7 143 -7 l142 0 98
98 c53 53 97 101 97 105 0 4 -64 7 -143 7 l-142 0 -98 -98z"/>
<path d="M3023 7181 c-51 -54 -93 -100 -93 -104 0 -4 128 -7 285 -7 221 0 285
-3 285 -12 0 -7 -90 -103 -200 -213 l-200 -200 297 -3 298 -2 207 207 c114
114 206 209 204 210 -2 2 -127 4 -277 4 -152 0 -281 4 -289 9 -12 8 4 28 78
102 50 52 92 97 92 101 0 4 -134 6 -297 6 l-298 -2 -92 -96z"/>
<path d="M11003 7181 c-51 -54 -93 -100 -93 -104 0 -4 64 -7 143 -6 l142 1 99
104 99 104 -149 -1 -149 -2 -92 -96z"/>
<path d="M12533 7181 c-51 -54 -93 -101 -93 -104 0 -4 59 -7 130 -7 98 0 130
-3 130 -13 0 -7 -44 -56 -98 -110 l-97 -97 -155 -1 -155 -1 -99 -104 -99 -104
402 0 401 0 0 210 0 210 -22 0 c-13 0 -30 5 -38 10 -12 9 -9 16 23 45 35 34
37 38 37 100 l0 65 -87 -1 -88 -1 -92 -97z"/>
<path d="M255 6857 l-210 -212 285 -3 c162 -1 288 -6 294 -12 6 -6 -25 -44
-82 -103 -51 -51 -89 -97 -85 -100 3 -4 62 -7 129 -7 68 0 125 -4 128 -8 3 -5
-38 -51 -90 -103 l-94 -94 142 -5 142 -5 105 108 106 107 160 1 160 2 99 103
100 104 -140 1 c-76 0 -275 0 -441 -1 -285 0 -303 1 -303 18 0 9 38 55 85 102
47 47 85 88 85 92 0 5 -58 8 -130 8 -96 0 -130 3 -130 12 0 7 42 54 92 105
l93 93 -125 0 c-69 0 -134 2 -145 4 -15 3 -71 -47 -230 -207z"/>
<path d="M2503 6968 c-53 -54 -95 -99 -92 -102 2 -2 66 -6 142 -7 l138 -3 96
97 c54 53 95 98 93 101 -3 2 -67 6 -143 8 l-137 3 -97 -97z"/>
<path d="M1677 6752 c-53 -53 -97 -101 -97 -105 0 -4 132 -7 294 -7 l293 0 94
96 c52 52 96 99 97 105 2 5 -110 9 -290 9 l-293 0 -98 -98z"/>
<path d="M4720 6739 l-106 -109 -305 1 -306 1 -96 -99 c-53 -55 -94 -103 -90
-106 3 -4 132 -7 285 -7 216 0 278 -3 278 -12 0 -7 -138 -150 -306 -318 l-305
-305 130 -5 c71 -3 133 -9 137 -13 4 -4 -33 -49 -84 -100 -51 -51 -92 -96 -92
-100 0 -4 58 -7 129 -7 80 0 132 -4 136 -10 4 -6 -34 -53 -84 -104 -50 -51
-88 -96 -84 -99 3 -4 203 -7 443 -7 l438 0 108 110 109 110 298 0 c234 0 297
-3 297 -13 0 -7 -38 -50 -85 -97 -47 -47 -85 -90 -85 -97 0 -10 35 -13 150
-13 113 0 150 -3 150 -12 0 -7 -88 -101 -195 -208 -107 -107 -195 -198 -195
-202 0 -4 58 -8 129 -8 72 0 132 -4 135 -8 3 -5 -35 -49 -85 -98 -49 -48 -89
-92 -89 -96 0 -5 55 -8 123 -8 67 0 129 -4 137 -9 11 -8 -7 -31 -85 -110 l-99
-101 135 0 c75 0 139 -3 143 -7 4 -4 -40 -53 -96 -110 l-103 -103 -155 -1
-155 -1 -99 -104 -99 -104 136 0 c76 0 210 -1 299 -1 l162 0 210 210 211 211
-133 0 c-112 0 -134 2 -139 16 -4 11 23 45 88 110 l94 94 -138 0 c-104 0 -137
3 -137 13 0 7 44 56 98 110 l97 97 142 0 c78 0 144 -4 147 -8 3 -5 -35 -49
-85 -98 -49 -48 -89 -92 -89 -96 0 -5 55 -8 123 -8 67 0 129 -5 137 -10 12 -8
-3 -27 -77 -102 -51 -52 -93 -97 -93 -101 0 -4 58 -7 128 -7 71 0 132 -3 136
-7 3 -4 -131 -145 -299 -313 -168 -168 -305 -311 -305 -318 0 -9 35 -12 130
-12 98 0 130 -3 130 -13 0 -7 -41 -53 -90 -102 l-91 -90 143 -5 143 -5 97 100
c62 64 92 103 85 107 -7 4 -67 8 -134 8 -68 0 -123 3 -123 8 0 4 95 102 210
217 l210 210 111 3 c120 4 179 -3 179 -20 0 -6 -41 -53 -92 -104 l-92 -94 132
0 c85 0 133 -4 138 -11 4 -7 -118 -136 -297 -315 -167 -167 -305 -308 -307
-314 -2 -6 44 -10 132 -10 95 0 136 -3 136 -11 0 -7 -41 -53 -91 -105 l-91
-92 138 -4 139 -4 103 101 102 100 -131 5 c-99 4 -134 8 -137 19 -2 7 39 56
96 112 l100 99 140 0 c92 0 143 -4 148 -11 4 -6 -33 -50 -85 -103 -50 -50 -91
-95 -91 -99 0 -4 61 -7 135 -7 102 0 135 -3 135 -13 0 -6 -94 -105 -208 -219
l-208 -208 -459 1 -459 0 -208 -208 -208 -208 132 -5 c109 -4 133 -8 136 -20
1 -9 -41 -58 -96 -113 l-99 -97 -134 0 c-74 0 -141 5 -149 10 -12 8 3 27 78
102 50 52 92 97 92 101 0 4 -63 7 -139 7 l-139 0 -317 -317 -317 -318 143 -3
142 -3 112 110 111 110 285 0 c157 0 291 -4 299 -9 12 -8 -4 -28 -77 -102 -51
-52 -93 -97 -93 -101 0 -4 201 -7 448 -7 l447 0 205 205 c112 112 202 206 200
209 -3 2 -67 6 -143 7 l-138 3 -107 -107 -107 -107 -298 0 c-233 0 -297 3
-297 13 0 7 44 56 98 110 l97 97 156 0 155 0 100 103 99 102 -285 3 c-169 1
-288 6 -294 12 -7 7 25 45 90 110 l100 100 457 0 c251 0 457 -3 457 -7 0 -4
-44 -52 -97 -105 l-98 -98 140 0 c77 -1 212 -1 300 -1 l161 0 104 105 104 106
148 0 c113 0 148 -3 148 -13 0 -7 -94 -106 -209 -221 l-209 -208 -152 3 -151
3 -322 -322 -322 -322 -460 -1 -460 -1 -99 -104 -99 -104 134 0 c74 -1 345 -1
603 -1 l470 0 215 215 216 216 292 0 c202 0 294 -3 299 -11 4 -6 -33 -51 -85
-103 -50 -51 -88 -95 -85 -99 4 -4 65 -7 136 -7 70 0 128 -3 128 -7 0 -4 -91
-100 -202 -213 l-203 -205 144 -3 144 -3 113 111 112 111 149 -2 149 -1 105
106 104 106 155 0 155 0 317 317 c175 174 316 319 314 320 -2 2 -127 4 -277 4
-153 0 -281 4 -289 9 -12 8 3 28 78 102 50 52 92 97 92 101 0 4 -58 7 -129 7
-80 0 -132 4 -136 10 -4 6 34 53 84 104 50 51 88 96 84 99 -3 4 -64 7 -135 7
-70 0 -128 3 -128 8 0 4 90 97 200 207 110 110 200 203 200 207 0 5 -61 8
-135 8 -100 0 -135 3 -135 12 0 7 42 54 92 105 l93 93 -135 1 c-74 0 -201 0
-283 -1 -191 -2 -192 -1 -66 126 l94 94 -146 0 -145 0 -207 -207 c-113 -114
-205 -209 -203 -210 2 -2 128 -4 280 -4 242 0 278 -2 283 -15 4 -11 -24 -46
-88 -110 l-94 -94 138 0 c104 0 137 -3 137 -13 0 -7 -38 -50 -85 -97 -47 -47
-85 -90 -85 -97 0 -10 31 -13 130 -13 97 0 130 -3 130 -12 0 -7 -88 -101 -195
-208 -107 -107 -195 -198 -195 -202 0 -5 128 -8 285 -8 224 0 285 -3 285 -13
0 -7 -44 -56 -98 -110 l-97 -97 -156 0 -155 0 -100 -102 -99 -103 130 -3 c71
-1 134 -7 139 -12 7 -7 -24 -45 -89 -110 l-100 -100 -147 0 c-111 0 -148 3
-148 12 0 7 42 54 92 105 l93 93 -132 0 c-86 0 -134 4 -139 11 -4 6 33 50 85
103 50 50 91 95 91 99 0 4 -61 7 -135 7 -101 0 -135 3 -135 13 0 6 137 149
305 316 167 167 302 308 299 313 -3 4 -63 8 -135 8 -71 0 -129 3 -129 7 0 4
41 49 92 100 51 51 90 95 87 98 -3 3 -136 5 -295 6 l-290 0 -104 -105 -104
-106 -148 0 c-112 0 -148 3 -148 13 0 6 234 246 520 531 352 352 516 523 507
528 -6 4 -67 8 -134 8 -68 0 -123 3 -123 8 0 4 88 95 195 202 107 107 195 200
195 207 0 10 -63 13 -292 12 l-293 -1 -99 -104 -99 -104 131 0 c85 0 133 -4
138 -11 4 -6 -33 -50 -85 -103 -50 -50 -91 -95 -91 -99 0 -4 61 -7 135 -7 105
0 135 -3 135 -13 0 -7 -44 -57 -99 -110 l-98 -97 -147 0 c-111 0 -146 3 -146
13 0 7 40 53 90 102 61 61 86 92 77 97 -6 4 -67 8 -134 8 -85 0 -123 4 -123
11 0 7 41 54 92 105 l92 94 -132 0 c-85 0 -133 4 -138 11 -4 6 33 50 85 103
50 50 91 95 91 99 0 4 -61 7 -135 7 -94 0 -135 3 -135 11 0 7 41 54 92 105
l92 94 -135 1 c-74 0 -200 0 -282 -1 -193 -2 -194 -1 -61 131 l100 98 293 0
c254 0 293 -2 298 -15 4 -11 -24 -46 -88 -110 l-94 -94 748 0 c585 0 747 -3
747 -12 0 -7 -42 -54 -92 -105 l-93 -93 115 0 c124 0 160 -6 160 -24 0 -7 -45
-56 -99 -110 l-99 -97 -152 2 -153 1 -98 -98 c-54 -54 -96 -101 -93 -106 3 -4
133 -8 290 -8 156 0 284 -3 284 -7 0 -4 -41 -49 -92 -100 -51 -51 -90 -95 -87
-97 3 -3 135 -6 295 -7 l289 -1 98 99 c76 78 95 102 82 107 -9 3 -70 6 -136 6
-65 0 -119 3 -119 8 0 4 41 48 90 97 50 49 90 93 90 97 0 5 -58 8 -129 8 -80
0 -132 4 -136 10 -4 6 34 53 84 104 50 51 91 95 91 99 0 4 -58 7 -129 7 -72 0
-132 4 -135 8 -3 5 35 49 85 98 49 48 89 92 89 96 0 5 -55 8 -122 8 -68 0
-130 4 -137 9 -12 8 5 30 77 103 51 52 92 97 92 101 0 4 -128 7 -285 7 -219 0
-285 3 -285 12 0 7 42 54 92 105 l93 93 -125 0 c-69 0 -132 5 -140 10 -12 7 4
29 80 107 l95 98 -130 3 c-71 1 -134 7 -139 12 -7 7 22 42 82 103 51 51 89 96
86 100 -4 4 -67 7 -139 7 l-133 0 -203 -205 c-112 -113 -205 -210 -207 -215
-2 -6 97 -10 282 -10 229 0 286 -3 286 -13 0 -7 -44 -57 -99 -110 l-98 -97
-296 0 c-195 0 -298 4 -302 10 -4 6 35 53 86 105 l93 95 -130 1 c-71 1 -190 0
-266 -1 -140 -2 -178 3 -178 23 0 6 41 53 92 104 l92 92 -143 3 -142 3 -112
-112 -113 -113 -137 0 c-116 0 -139 2 -144 16 -4 11 51 72 190 212 108 107
194 199 191 204 -3 4 -65 8 -138 8 l-134 0 -108 -110 -109 -110 -142 0 c-93 0
-144 4 -149 11 -4 6 33 51 85 103 50 51 88 95 85 99 -4 4 -65 7 -136 7 -70 0
-128 3 -128 8 0 4 41 48 90 97 50 49 90 93 90 97 0 5 -67 8 -149 8 -97 0 -152
4 -156 11 -4 6 128 146 304 322 l311 312 -143 3 -143 3 -214 -216 -215 -215
-296 0 c-163 0 -299 3 -303 7 -4 4 40 53 96 110 l103 103 151 0 151 0 206 207
c113 114 204 211 201 215 -3 4 -134 8 -292 8 l-287 0 -110 -110 -110 -110
-152 0 -152 0 -93 -96 c-51 -53 -94 -100 -96 -105 -2 -5 52 -9 126 -9 71 0
132 -3 136 -7 4 -4 -37 -51 -91 -105 l-98 -98 133 0 c175 0 176 -2 45 -131
l-99 -99 -292 0 c-199 0 -293 4 -298 11 -4 7 78 96 190 208 108 108 196 200
196 204 0 4 -55 7 -122 7 -68 0 -130 5 -138 10 -12 7 28 52 195 220 l210 210
155 0 155 0 98 98 c53 53 97 101 97 105 0 4 -58 7 -129 7 -84 0 -132 4 -137
11 -4 6 33 50 85 103 50 50 91 95 91 99 0 4 -64 6 -142 6 l-143 -2 -105 -108z"/>
<path d="M2372 6528 l-106 -108 -310 -1 -311 -1 -99 -104 -99 -104 134 0 c74
-1 276 -1 450 -1 l316 0 103 106 104 105 156 0 155 0 100 100 c54 54 97 102
94 105 -3 3 -135 6 -293 8 l-288 2 -106 -107z"/>
<path d="M9750 6535 c-54 -54 -96 -103 -94 -107 3 -4 67 -8 142 -7 l137 1 99
104 98 103 -142 3 -142 3 -98 -100z"/>
<path d="M63 6359 c-59 -57 -63 -64 -63 -105 l0 -44 90 0 c126 0 126 -8 9
-126 l-94 -94 146 0 146 0 94 96 c52 52 96 99 97 105 2 5 -49 9 -127 9 -79 0
-132 4 -136 10 -4 6 34 53 84 104 50 51 88 96 84 99 -3 4 -65 7 -137 7 l-131
0 -62 -61z"/>
<path d="M3075 6320 c-54 -54 -97 -102 -94 -105 3 -3 131 -6 284 -8 215 -1
279 -5 283 -15 5 -15 -151 -178 -191 -199 -22 -11 -61 -14 -169 -12 l-141 2
-208 -209 -209 -209 132 -3 c73 -1 137 -7 142 -12 5 -5 -30 -48 -83 -103 -50
-52 -91 -97 -91 -100 0 -4 62 -7 138 -7 l137 0 105 105 105 105 -137 0 c-85 0
-139 4 -143 11 -4 5 38 56 94 112 l100 102 138 3 c80 1 144 -2 153 -7 12 -9
-2 -28 -77 -103 -51 -52 -93 -97 -93 -101 0 -4 58 -7 129 -7 81 0 132 -4 136
-11 4 -6 -83 -101 -194 -212 -110 -110 -199 -202 -197 -204 2 -2 130 -4 284
-4 181 1 283 -3 287 -10 4 -5 -34 -52 -84 -103 -50 -51 -91 -95 -91 -99 0 -4
64 -6 143 -6 l142 2 99 103 100 104 -136 0 c-76 0 -139 4 -143 10 -3 5 35 50
85 100 49 50 90 95 90 100 0 6 -52 10 -130 10 -96 0 -130 3 -130 12 0 7 42 54
92 105 l93 93 -133 0 c-172 0 -173 3 -58 119 47 47 86 90 86 94 0 4 -58 7
-130 7 -97 0 -130 3 -130 13 0 6 88 100 195 207 107 107 195 198 195 202 0 5
-58 8 -129 8 -80 0 -132 4 -136 10 -4 6 34 53 84 104 50 51 88 96 84 99 -3 4
-135 7 -292 7 l-286 0 -100 -100z"/>
<path d="M12276 6314 l-99 -104 131 -1 c73 -1 137 -2 143 -3 14 -1 209 196
203 206 -3 4 -67 8 -142 7 l-137 -1 -99 -104z"/>
<path d="M812 5887 c-171 -171 -312 -315 -312 -320 0 -4 58 -7 129 -7 80 0
132 -4 136 -10 4 -6 -34 -53 -84 -104 -50 -51 -88 -96 -84 -99 3 -4 64 -7 135
-7 70 0 128 -3 128 -8 0 -4 -40 -48 -90 -97 -49 -49 -90 -93 -90 -97 0 -5 58
-8 129 -8 82 0 132 -4 136 -11 4 -6 -82 -100 -194 -212 -110 -110 -199 -202
-198 -203 1 -2 65 -4 142 -5 l140 -2 104 107 105 106 148 0 c111 0 148 -3 148
-12 0 -7 -42 -54 -92 -105 l-93 -93 132 0 c86 0 134 -4 139 -11 4 -6 -33 -50
-85 -103 -50 -50 -91 -95 -91 -99 0 -4 134 -7 298 -6 l297 1 99 104 99 104
-291 0 c-225 0 -292 3 -292 12 0 7 42 54 92 105 l93 93 -125 0 c-69 0 -132 5
-140 10 -12 8 5 30 92 116 l106 105 148 -2 147 -2 98 99 c54 54 95 102 93 106
-3 4 -131 8 -285 8 -214 0 -279 3 -279 12 0 7 42 54 92 105 l93 93 -132 0
c-86 0 -134 4 -139 11 -4 6 33 50 85 103 50 50 91 95 91 99 0 4 -61 7 -135 7
-100 0 -135 3 -135 12 0 7 42 54 92 105 l93 93 -132 0 c-86 0 -134 4 -139 11
-4 6 33 50 85 103 50 50 91 95 91 99 0 4 -64 7 -143 7 l-142 0 -313 -313z
m468 -117 c12 -8 -3 -27 -77 -102 -51 -52 -93 -97 -93 -101 0 -4 58 -7 129 -7
84 0 132 -4 137 -11 4 -6 -33 -51 -85 -103 -50 -51 -88 -95 -85 -99 4 -4 65
-7 136 -7 70 0 128 -3 128 -8 0 -4 -46 -53 -103 -110 l-102 -102 -143 0 c-108
0 -142 3 -142 13 0 7 38 50 85 97 47 47 85 90 85 97 0 10 -31 13 -130 13 -96
0 -130 3 -130 12 0 7 42 54 92 105 l93 93 -132 0 c-88 0 -134 4 -139 11 -4 7
35 54 98 115 l105 104 129 0 c71 0 136 -5 144 -10z"/>
<path d="M2539 6088 l-105 -108 -305 1 -304 2 -99 -102 -100 -101 130 -1 c71
-1 198 0 281 1 198 3 199 1 72 -126 l-94 -94 137 0 c75 0 139 -4 142 -8 3 -5
-35 -49 -85 -98 -49 -48 -89 -94 -89 -101 0 -10 33 -13 138 -13 l137 0 105
105 105 105 -137 0 c-87 0 -139 4 -143 11 -4 6 128 146 301 320 170 170 311
312 313 314 2 3 -63 4 -145 3 l-149 -1 -106 -109z"/>
<path d="M8393 6101 c-51 -54 -93 -100 -93 -104 0 -4 64 -7 143 -6 l142 1 99
104 99 104 -149 -1 -149 -2 -92 -96z"/>
<path d="M12673 6101 c-51 -54 -93 -101 -93 -104 0 -4 50 -7 110 -7 l110 0 0
105 c0 94 -2 105 -17 104 -10 -1 -60 -45 -110 -98z"/>
<path d="M8787 5883 l-102 -103 133 0 c175 0 176 -2 45 -131 l-100 -99 -141 0
c-92 0 -143 4 -148 11 -4 6 33 50 85 103 50 50 91 95 91 99 0 4 -64 7 -142 6
l-143 -1 -99 -104 -99 -104 136 0 c104 0 137 -3 137 -13 0 -7 -40 -53 -89
-101 -50 -49 -88 -93 -85 -98 3 -4 133 -8 290 -8 156 0 284 -3 284 -8 0 -4
-40 -48 -90 -97 -49 -49 -90 -93 -90 -97 0 -5 58 -8 129 -8 80 0 132 -4 136
-10 4 -6 -34 -53 -84 -104 -50 -51 -91 -95 -91 -99 0 -4 58 -7 128 -7 71 0
132 -3 136 -7 3 -4 -35 -49 -86 -100 -50 -51 -90 -94 -87 -97 2 -2 66 -6 142
-7 l138 -3 94 94 c52 52 95 98 95 102 0 5 -56 8 -125 8 -165 0 -166 3 -44 126
l94 94 -138 0 c-103 0 -137 3 -137 13 0 7 88 100 195 207 107 107 195 198 195
202 0 5 -58 8 -129 8 -84 0 -132 4 -137 11 -4 6 33 50 85 103 50 50 91 95 91
99 0 4 -61 7 -135 7 -74 0 -135 3 -135 7 0 4 41 49 92 100 51 51 90 94 87 97
-2 2 -66 6 -142 8 l-137 3 -103 -102z"/>
<path d="M37 5728 c-35 -38 -37 -44 -37 -104 l0 -64 85 0 84 0 93 96 c51 53
95 100 96 105 2 5 -57 8 -140 8 l-143 -2 -38 -39z"/>
<path d="M6126 5664 l-99 -104 145 0 145 0 94 96 c52 52 96 99 97 105 2 5 -54
9 -140 8 l-143 -1 -99 -104z"/>
<path d="M12133 5562 c-111 -113 -200 -209 -197 -214 3 -4 65 -8 138 -8 l132
0 205 205 c112 113 206 210 207 215 2 6 -49 10 -140 9 l-143 -2 -202 -205z"/>
<path d="M11113 5458 c-56 -56 -99 -106 -97 -110 3 -4 63 -8 135 -8 89 0 129
-3 129 -11 0 -7 -41 -54 -92 -105 l-92 -94 132 0 c85 0 133 -4 138 -11 4 -6
-33 -50 -85 -103 -50 -50 -91 -95 -91 -99 0 -4 61 -7 135 -7 94 0 135 -3 135
-11 0 -7 -41 -54 -92 -105 l-92 -94 125 0 c68 0 131 -5 139 -10 12 -8 -3 -27
-77 -102 -51 -52 -93 -97 -93 -101 0 -4 64 -7 143 -7 l143 0 100 103 99 102
-137 3 c-99 2 -138 6 -138 15 0 6 42 53 92 104 l93 93 -125 0 c-136 0 -158 6
-141 36 5 11 94 102 196 203 102 102 185 188 185 193 0 4 -128 8 -285 8 -206
0 -285 3 -285 11 0 7 41 54 92 105 l92 94 -126 0 c-70 0 -133 2 -140 5 -9 4
-53 -34 -115 -97z"/>
<path d="M12641 5456 c-55 -55 -97 -104 -95 -108 3 -4 61 -8 130 -8 l124 0 0
104 0 104 -30 4 c-27 4 -40 -6 -129 -96z"/>
<path d="M0 5235 c0 -62 4 -106 10 -106 6 -1 15 -2 21 -3 14 -1 209 196 203
206 -3 4 -57 8 -120 8 l-114 0 0 -105z"/>
<path d="M5046 5234 l-98 -103 142 -3 142 -3 98 100 c54 54 96 103 94 107 -3
4 -67 8 -142 7 l-137 -1 -99 -104z"/>
<path d="M9367 5242 c-53 -53 -97 -101 -97 -105 0 -4 58 -7 129 -7 84 0 132
-4 137 -11 4 -6 -33 -50 -85 -103 -50 -50 -91 -95 -91 -99 0 -4 58 -7 129 -7
72 0 132 -4 135 -8 3 -5 -85 -98 -195 -208 -109 -109 -199 -202 -199 -206 0
-5 61 -8 135 -8 101 0 135 -3 135 -12 0 -7 -90 -103 -200 -213 l-200 -200 135
-3 c99 -2 135 -6 135 -15 0 -7 -38 -50 -85 -97 -47 -47 -85 -90 -85 -97 0 -10
31 -13 130 -13 97 0 130 -3 130 -12 0 -7 -88 -101 -195 -208 -107 -107 -195
-198 -195 -202 0 -5 62 -8 139 -8 l139 0 108 110 109 109 447 0 c305 0 449 -3
454 -10 4 -6 -35 -52 -85 -103 -50 -50 -91 -95 -91 -99 0 -4 64 -7 143 -7
l143 0 100 103 99 102 -137 3 c-102 2 -138 6 -138 15 0 7 40 53 90 102 61 61
86 92 77 97 -6 4 -67 8 -134 8 -85 0 -123 4 -123 11 0 7 41 54 91 105 l92 93
-143 3 -142 3 -106 -107 -106 -108 -303 0 c-167 0 -303 3 -303 7 0 4 44 52 97
105 l98 98 -137 0 c-87 0 -139 4 -143 11 -4 6 82 100 194 212 l201 202 -127 3
c-70 1 -132 7 -138 13 -6 6 60 79 195 214 l205 205 -133 0 c-112 0 -134 2
-139 16 -4 11 23 45 88 110 l94 94 -138 0 c-104 0 -137 3 -137 13 0 7 40 53
89 101 50 49 88 93 85 98 -3 4 -67 8 -142 8 l-137 0 -98 -98z"/>
<path d="M12603 5118 c-106 -106 -193 -197 -193 -201 0 -4 61 -7 135 -7 101 0
135 -3 135 -12 0 -7 -90 -103 -200 -213 l-200 -200 142 -3 143 -2 118 116 117
117 0 93 0 94 -32 0 c-65 0 -68 15 -15 68 l48 48 -3 147 -3 147 -192 -192z"/>
<path d="M2091 5027 c-53 -54 -97 -102 -99 -107 -2 -6 50 -10 132 -10 75 0
136 -3 136 -7 0 -4 -42 -50 -92 -102 l-93 -96 140 -5 140 -6 105 103 105 103
-133 0 c-112 0 -134 2 -139 16 -4 11 23 44 87 109 l94 94 -143 3 -143 3 -97
-98z"/>
<path d="M2701 5027 c-53 -54 -97 -102 -99 -107 -2 -6 50 -10 132 -10 98 0
136 -3 136 -12 0 -6 -94 -106 -209 -221 l-209 -208 -153 2 -152 2 -98 -99
c-54 -54 -97 -100 -95 -101 2 -2 135 -4 295 -5 l293 -2 314 315 314 314 -112
2 c-128 3 -158 8 -158 26 0 6 41 53 92 104 l92 92 -143 3 -143 3 -97 -98z"/>
<path d="M173 4942 c-154 -156 -173 -179 -173 -209 l0 -33 94 0 c52 0 101 -2
108 -5 8 -3 94 75 223 205 116 116 212 213 214 215 2 3 -63 4 -145 4 l-149 -2
-172 -175z"/>
<path d="M4113 4911 l-203 -206 127 -3 c70 -1 132 -7 137 -12 7 -7 -21 -42
-82 -103 -51 -51 -92 -96 -92 -100 0 -4 58 -7 129 -7 83 0 132 -4 137 -11 3
-6 -127 -144 -307 -325 l-314 -314 -155 0 -155 0 -105 -105 -105 -105 130 0
c72 0 137 -4 144 -9 12 -8 -5 -30 -77 -103 -51 -52 -92 -97 -92 -101 0 -4 58
-7 129 -7 72 0 132 -4 135 -8 3 -5 -85 -98 -195 -208 -109 -109 -199 -202
-199 -206 0 -5 73 -8 163 -8 l162 0 215 215 215 215 142 0 c78 0 144 -4 147
-8 3 -5 -85 -98 -195 -208 -109 -109 -199 -202 -199 -206 0 -5 132 -8 293 -8
l293 0 215 215 214 215 155 0 155 0 209 209 c188 188 206 209 184 214 -12 4
-143 7 -290 7 -148 0 -268 3 -268 7 0 4 41 49 92 100 51 51 90 95 87 97 -2 3
-67 6 -143 7 l-139 1 -98 -98 c-54 -54 -96 -101 -93 -106 3 -4 63 -8 135 -8
97 0 129 -3 129 -13 0 -7 -94 -106 -208 -220 l-208 -207 -135 0 c-74 0 -141 5
-149 10 -11 7 28 52 187 212 136 136 198 205 190 210 -7 4 -69 8 -138 8 l-127
0 -108 -110 -109 -110 -162 0 c-108 0 -164 4 -169 11 -4 7 80 98 203 221 l210
209 173 -1 173 -2 93 93 c52 52 94 99 94 106 0 10 -35 13 -150 13 -113 0 -150
3 -150 13 0 6 88 100 195 207 107 107 195 198 195 202 0 4 -128 8 -285 8 -224
0 -285 3 -285 13 0 7 44 56 98 110 l97 97 155 0 155 0 98 98 c53 53 97 101 97
105 0 4 -134 6 -297 6 l-298 -2 -202 -206z"/>
<path d="M11897 5022 c-53 -53 -97 -101 -97 -105 0 -4 61 -7 135 -7 100 0 135
-3 135 -12 0 -7 -42 -54 -92 -105 l-93 -93 133 -1 c72 -1 137 -2 143 -3 6 -1
55 44 110 99 l99 100 -129 5 c-71 3 -133 9 -137 13 -4 4 33 49 84 100 51 51
92 96 92 100 0 4 -64 7 -143 7 l-142 0 -98 -98z"/>
<path d="M4925 4810 c-52 -53 -95 -99 -95 -103 0 -4 65 -7 145 -7 124 0 147
-2 152 -16 4 -11 -51 -73 -191 -212 l-197 -197 141 -5 141 -6 202 203 c111
112 204 208 205 213 2 6 -47 10 -125 10 -72 0 -133 3 -137 7 -3 4 35 49 86
100 50 51 90 94 87 97 -2 2 -75 6 -162 8 l-157 3 -95 -95z"/>
<path d="M3176 4584 l-99 -104 286 0 c198 0 288 -3 293 -11 4 -6 -36 -53 -92
-110 l-99 -99 -306 0 -307 0 -109 -110 -109 -111 -155 1 -155 2 -94 -97 c-52
-53 -96 -100 -98 -106 -2 -5 107 -9 282 -9 156 0 287 -4 290 -8 3 -5 -38 -51
-90 -103 l-94 -94 142 -5 143 -5 221 218 220 218 149 -2 149 -1 208 208 208
209 -127 3 c-70 1 -132 7 -137 12 -6 6 23 44 82 104 51 51 92 96 92 100 0 3
-134 6 -297 5 l-298 -1 -99 -104z"/>
<path d="M10853 4591 c-51 -54 -93 -100 -93 -104 0 -4 64 -7 143 -6 l142 1 99
104 99 104 -149 -1 -149 -2 -92 -96z"/>
<path d="M0 4374 l0 -101 40 -7 c24 -4 40 -12 40 -20 0 -7 -18 -30 -40 -50
-37 -34 -40 -39 -40 -91 l0 -55 85 0 c47 0 158 -1 247 -1 l162 0 108 108 108
108 153 1 152 1 99 101 100 102 -135 1 c-74 0 -208 0 -298 0 l-164 0 -106
-105 -106 -106 -148 0 c-81 0 -147 3 -147 7 0 4 41 49 92 100 51 51 90 94 87
97 -2 2 -68 6 -147 8 l-142 3 0 -101z"/>
<path d="M11857 4373 l-102 -103 115 0 c123 0 160 -6 160 -23 0 -7 -42 -53
-92 -104 l-93 -93 138 0 c104 0 137 -3 137 -13 0 -7 -40 -53 -89 -101 -50 -49
-88 -93 -85 -98 3 -4 137 -8 297 -7 l292 1 99 104 99 104 -131 0 c-85 0 -133
4 -138 11 -4 6 33 50 85 103 50 50 91 95 91 99 0 4 -130 7 -290 7 -159 0 -290
3 -290 7 0 4 41 49 92 100 51 51 90 94 87 97 -2 2 -66 6 -142 8 l-137 3 -103
-102z"/>
<path d="M1216 4154 l-100 -104 137 0 c104 0 137 -3 137 -13 0 -7 -38 -50 -85
-97 -47 -47 -85 -90 -85 -97 0 -10 61 -13 285 -13 206 0 285 -3 285 -11 0 -7
-41 -54 -91 -105 l-92 -93 139 -3 139 -3 102 100 c70 67 99 102 90 107 -6 4
-67 8 -134 8 -91 0 -123 3 -123 12 0 7 42 54 92 105 l93 93 -132 0 c-86 0
-134 4 -139 11 -4 6 33 50 85 103 50 50 91 95 91 99 0 4 -134 6 -297 6 l-298
-2 -99 -103z"/>
<path d="M10726 4154 l-99 -104 131 0 c85 0 133 -4 138 -11 4 -6 -33 -50 -85
-103 -50 -50 -91 -95 -91 -99 0 -4 61 -7 135 -7 100 0 135 -3 135 -12 0 -7
-42 -54 -92 -105 l-93 -93 132 0 c86 0 134 -4 139 -11 4 -7 -78 -96 -197 -215
l-204 -204 133 0 c112 0 134 -2 139 -16 4 -11 -23 -45 -88 -110 l-94 -94 138
0 c104 0 137 -3 137 -13 0 -7 -44 -56 -98 -110 l-97 -97 -155 -1 -155 -1 -99
-104 -99 -104 131 0 c85 0 133 -4 138 -11 4 -6 -33 -50 -85 -103 -50 -50 -91
-95 -91 -99 0 -4 128 -7 283 -7 156 0 287 -3 291 -7 3 -4 -35 -49 -86 -100
-50 -51 -90 -94 -87 -97 2 -2 66 -6 142 -7 l138 -3 102 102 102 102 -133 0
c-112 0 -134 2 -139 16 -4 11 23 45 88 110 l94 94 -138 0 c-104 0 -137 3 -137
13 0 7 44 56 98 110 l97 97 453 0 c248 0 452 -3 452 -8 0 -4 -40 -48 -90 -97
-49 -49 -90 -93 -90 -97 0 -5 58 -8 129 -8 86 0 132 -4 137 -11 4 -7 -35 -54
-98 -115 l-105 -104 -137 0 c-116 0 -138 2 -143 16 -4 11 23 45 88 110 l94 94
-146 0 -146 0 -94 -96 c-52 -52 -95 -99 -97 -105 -2 -5 49 -9 127 -9 71 0 132
-4 135 -8 3 -5 -91 -104 -208 -221 l-212 -212 -150 1 -149 2 -310 -311 c-170
-171 -311 -316 -313 -321 -3 -7 96 -10 282 -10 224 0 286 -3 286 -13 0 -7 -94
-106 -209 -220 l-209 -208 -152 2 -152 2 -107 -107 -106 -106 -148 0 c-81 0
-147 3 -147 8 0 4 137 144 305 312 168 168 305 308 305 312 0 5 -56 8 -125 8
-165 0 -166 3 -44 126 l94 94 -146 0 -146 0 -94 -96 c-52 -52 -95 -99 -97
-105 -2 -5 49 -9 126 -9 71 0 132 -3 136 -7 4 -4 -40 -53 -96 -110 l-103 -103
-297 0 c-232 0 -298 3 -298 13 0 6 137 149 305 316 207 207 301 307 292 313
-6 4 -67 8 -134 8 -68 0 -123 3 -123 8 0 4 41 48 90 97 50 49 90 93 90 97 0 5
-58 8 -129 8 -84 0 -132 4 -137 11 -4 6 33 50 85 103 50 50 91 95 91 99 0 4
-62 7 -139 7 l-138 0 -317 -317 -316 -318 127 -3 c70 -1 132 -7 137 -12 7 -7
-21 -42 -82 -103 -51 -51 -92 -96 -92 -100 0 -4 61 -7 135 -7 105 0 135 -3
135 -13 0 -7 -44 -57 -99 -110 l-98 -97 -147 0 c-111 0 -146 3 -146 13 0 7 41
53 90 102 l91 90 -132 5 c-96 4 -134 9 -137 18 -2 7 38 55 89 107 l93 95 -146
0 -145 0 -94 -96 c-52 -52 -95 -99 -97 -105 -2 -5 51 -9 132 -9 95 0 136 -3
136 -11 0 -7 -41 -54 -92 -105 l-92 -94 125 0 c68 0 131 -5 139 -10 12 -8 -3
-27 -77 -102 -51 -52 -93 -97 -93 -101 0 -4 128 -7 285 -7 224 0 285 -3 285
-13 0 -7 -40 -53 -90 -102 -61 -61 -86 -92 -77 -97 6 -4 204 -8 440 -8 335 0
427 -3 427 -12 0 -7 -126 -139 -281 -293 l-280 -280 755 -3 756 -2 69 72 69
73 -128 5 c-71 3 -132 9 -136 13 -4 4 33 49 84 100 51 51 92 96 92 100 0 4
-64 7 -142 7 l-142 0 -111 -110 -112 -110 -129 0 c-71 0 -136 5 -144 10 -12 8
27 52 195 220 l210 210 151 0 152 0 108 110 109 110 148 0 c111 0 147 -3 147
-12 0 -7 -90 -103 -200 -213 l-200 -200 135 -3 c121 -2 135 -4 135 -20 0 -10
-38 -55 -85 -102 -47 -47 -85 -88 -85 -92 0 -5 59 -8 130 -8 96 0 130 -3 130
-12 0 -7 -30 -43 -67 -80 l-67 -68 301 0 301 0 78 80 77 80 149 0 c110 0 148
-3 148 -12 0 -7 -30 -43 -67 -80 l-67 -68 146 0 146 0 78 80 77 80 149 0 c110
0 148 -3 148 -12 0 -7 -30 -43 -67 -80 l-67 -68 212 0 212 0 0 75 0 75 -117 0
c-65 0 -125 5 -133 10 -12 8 11 36 118 142 l132 133 0 78 0 77 -65 0 c-48 0
-65 4 -65 13 0 8 29 42 65 76 51 49 65 69 65 92 l0 29 -104 0 c-68 0 -107 4
-112 11 -4 7 38 56 105 122 l111 110 0 92 0 92 -52 6 -53 5 -325 -324 -325
-324 -148 0 c-103 0 -147 3 -147 11 0 7 236 246 525 532 l525 519 0 151 0 151
-38 -37 -39 -38 -150 2 -150 1 -94 -97 c-52 -53 -95 -101 -97 -106 -2 -5 52
-9 125 -9 72 0 133 -3 137 -7 4 -4 -40 -53 -96 -110 l-103 -103 -142 0 c-88 0
-144 4 -148 10 -4 6 34 53 85 104 71 73 88 95 75 100 -9 3 -70 6 -136 6 -65 0
-119 3 -119 8 0 4 90 97 200 207 110 110 200 203 200 207 0 5 -61 8 -135 8
-98 0 -135 3 -135 12 0 7 44 56 98 110 l98 98 147 0 c112 0 147 -3 147 -13 0
-7 -41 -53 -90 -102 l-91 -90 138 -5 c76 -3 177 -3 226 -1 l87 3 0 99 0 99
-107 0 c-60 0 -115 5 -123 10 -12 8 9 33 108 132 l122 121 0 89 0 88 -55 0
c-40 0 -55 4 -55 14 0 8 25 37 55 64 l55 51 0 255 0 256 -30 0 c-47 0 -50 27
-7 67 35 31 37 37 37 93 l0 60 -393 0 -393 0 -111 -111 -111 -111 -151 3 -152
3 -97 -97 c-53 -53 -94 -99 -91 -102 3 -3 136 -5 295 -6 l289 -1 106 106 105
106 295 0 c163 0 299 -3 302 -7 4 -3 -34 -50 -85 -102 l-93 -96 132 -5 c72 -3
135 -9 139 -13 5 -4 -83 -98 -193 -209 -111 -111 -200 -205 -197 -210 3 -4 63
-8 135 -8 93 0 129 -3 129 -12 0 -7 -44 -56 -98 -110 l-98 -98 -147 0 c-112 0
-147 3 -147 13 0 7 40 53 90 102 61 61 86 92 77 97 -6 4 -67 8 -134 8 -92 0
-123 3 -123 13 0 6 88 100 195 206 107 107 195 199 195 203 0 4 -62 8 -138 8
l-138 0 -110 -110 -109 -109 -447 0 c-311 -1 -449 3 -454 10 -4 6 34 52 85
103 50 50 91 95 91 99 0 4 -58 7 -129 7 -72 0 -132 4 -135 8 -3 5 85 98 195
208 109 109 199 202 199 206 0 5 -61 8 -135 8 -102 0 -135 3 -135 13 0 7 44
56 98 110 l97 97 148 0 c110 0 147 -3 147 -12 0 -7 -42 -54 -92 -105 l-93 -93
133 -1 c72 -1 137 -2 143 -3 19 -2 209 198 196 206 -7 4 -67 8 -134 8 -68 0
-123 3 -123 8 0 4 41 48 90 97 50 49 90 93 90 97 0 5 -58 8 -129 8 -84 0 -132
4 -137 11 -4 6 33 50 85 103 50 50 91 95 91 99 0 4 -62 7 -139 7 l-139 0 -108
-110 -109 -110 -142 0 c-93 0 -144 4 -149 11 -4 6 33 50 85 103 50 50 91 95
91 99 0 4 -64 7 -142 6 l-143 -1 -99 -104z m1273 -2053 c21 -14 5 -33 -194
-230 -102 -102 -185 -188 -185 -193 0 -4 59 -8 130 -8 96 0 130 -3 130 -12 0
-7 -44 -57 -97 -110 l-98 -98 -142 0 c-88 0 -144 4 -148 10 -4 6 34 53 85 104
71 73 88 95 75 100 -9 3 -70 6 -136 6 -65 0 -119 4 -119 8 0 4 96 103 213 220
l213 212 130 0 c71 0 135 -4 143 -9z m-2559 -444 c0 -7 -44 -57 -99 -110 l-98
-97 -147 0 c-109 0 -146 3 -146 12 0 7 44 57 97 110 l98 98 147 0 c116 0 148
-3 148 -13z m1830 0 c0 -7 -41 -53 -90 -102 l-91 -90 132 -5 c96 -4 134 -9
137 -18 2 -7 -38 -55 -89 -107 l-93 -95 137 0 c102 0 137 -3 137 -12 0 -7 -42
-54 -92 -105 l-93 -93 125 0 c69 0 131 -4 139 -9 20 -13 4 -35 -97 -133 l-89
-88 -141 0 c-92 0 -143 4 -148 11 -4 6 33 50 85 103 50 50 91 95 91 99 0 4
-61 7 -135 7 -94 0 -135 3 -135 11 0 7 41 54 92 105 l92 94 -125 0 c-68 0
-131 5 -139 10 -12 8 3 27 78 102 50 52 92 97 92 101 0 4 -58 7 -129 7 -84 0
-132 4 -137 11 -4 6 36 53 92 110 l99 99 147 0 c113 0 148 -3 148 -13z m790
-429 c0 -7 -44 -57 -97 -110 l-98 -98 -142 0 c-91 0 -144 4 -149 11 -3 6 38
55 93 110 l99 99 147 0 c110 0 147 -3 147 -12z m-340 -651 c0 -7 -44 -57 -99
-110 l-98 -97 -141 0 c-92 0 -143 4 -148 11 -4 6 36 53 92 110 l99 99 147 0
c116 0 148 -3 148 -13z"/>
<path d="M12777 4073 c-12 -11 -8 -23 8 -23 8 0 15 7 15 15 0 16 -12 20 -23 8z"/>
<path d="M137 3687 l-137 -141 0 -73 0 -73 64 0 c36 0 67 -4 70 -8 3 -5 -26
-40 -64 -77 -52 -52 -70 -76 -70 -96 l0 -27 118 -4 117 -4 105 103 105 103
-133 0 c-175 0 -176 2 -45 132 l100 98 304 -1 304 -1 98 99 c76 78 95 102 82
107 -9 3 -211 5 -448 5 l-432 -2 -138 -140z"/>
<path d="M1169 3498 l-107 -110 -151 3 -152 3 -205 -205 c-112 -112 -204 -207
-204 -211 0 -5 58 -8 129 -8 84 0 132 -4 137 -11 4 -7 -77 -95 -194 -212 -111
-111 -200 -202 -199 -203 2 -2 65 -4 142 -5 l140 -1 207 208 208 209 -132 5
c-78 3 -133 9 -135 15 -2 6 44 57 101 114 l105 103 148 -3 148 -2 205 207
c113 114 207 209 209 211 2 3 -63 4 -145 3 l-149 -1 -106 -109z"/>
<path d="M1992 3401 l-202 -206 129 -5 c71 -3 133 -9 137 -13 4 -4 -33 -49
-84 -100 -51 -51 -92 -96 -92 -100 0 -4 132 -7 294 -7 l293 0 94 96 c52 52 96
99 97 105 2 5 -51 9 -132 9 -75 0 -136 3 -136 8 0 4 41 48 90 97 50 49 90 93
90 97 0 5 -55 8 -122 8 -68 0 -130 5 -138 10 -12 8 3 27 78 102 50 52 92 97
92 101 0 4 -64 6 -142 6 l-143 -2 -203 -206z"/>
<path d="M5280 3293 l-315 -318 130 -3 c71 -1 134 -7 139 -12 7 -7 -22 -42
-82 -103 -51 -51 -89 -96 -86 -100 4 -4 67 -7 139 -7 l133 0 203 205 c112 113
206 210 207 215 2 6 -45 10 -127 10 -99 0 -131 3 -131 13 0 7 88 100 195 207
107 107 195 198 195 202 0 5 -64 8 -143 8 l-142 0 -315 -317z"/>
<path d="M2798 3293 l-101 -101 144 -4 144 -4 100 98 c54 53 97 99 95 102 -3
2 -67 6 -143 8 l-137 3 -102 -102z"/>
<path d="M5897 3295 l-98 -103 138 -4 138 -4 105 103 105 103 -125 0 c-69 0
-134 2 -145 5 -15 3 -44 -21 -118 -100z"/>
<path d="M9558 3293 l-103 -103 133 0 c112 0 134 -2 139 -16 4 -11 -23 -45
-88 -110 l-94 -94 138 0 c104 0 137 -3 137 -13 0 -7 -40 -53 -89 -101 -50 -49
-88 -93 -85 -98 3 -4 63 -8 135 -8 95 0 129 -3 129 -12 0 -7 -42 -54 -92 -105
l-93 -93 133 -1 c72 -1 137 -2 143 -3 14 -1 209 196 203 206 -3 4 -63 8 -135
8 -90 0 -129 3 -129 11 0 7 44 56 99 110 l98 99 155 0 155 0 94 96 c52 52 96
99 97 105 2 5 -107 9 -282 9 -220 0 -286 3 -286 12 0 7 42 54 92 105 l93 93
-135 1 c-74 0 -208 1 -298 2 l-162 2 -102 -102z"/>
<path d="M1367 3082 c-53 -53 -97 -101 -97 -105 0 -4 58 -7 129 -7 80 0 132
-4 136 -10 4 -6 -34 -53 -84 -104 -50 -51 -91 -95 -91 -99 0 -4 62 -7 138 -7
l137 0 105 105 105 105 -138 0 c-124 0 -137 2 -137 18 0 9 38 55 85 102 47 47
85 88 85 92 0 5 -62 8 -138 8 l-137 0 -98 -98z"/>
<path d="M9036 3074 l-98 -104 136 0 c102 0 136 -3 136 -12 0 -7 -90 -103
-200 -212 -110 -110 -198 -201 -196 -203 2 -2 130 -4 284 -4 191 1 283 -3 288
-10 4 -6 -34 -52 -85 -103 -50 -50 -91 -95 -91 -99 0 -4 64 -7 143 -6 l142 1
99 104 99 104 -137 0 c-103 0 -136 3 -136 13 0 7 40 53 89 101 50 49 88 93 85
98 -3 4 -63 8 -135 8 -89 0 -129 3 -129 11 0 7 41 54 92 105 l92 94 -132 0
c-85 0 -133 4 -138 11 -4 6 33 50 85 103 50 50 91 95 91 99 0 4 -64 7 -142 6
l-143 0 -99 -105z"/>
<path d="M14 2957 c-11 -6 -14 -32 -14 -107 l0 -100 58 1 57 1 99 104 98 103
-142 3 c-78 2 -148 -1 -156 -5z"/>
<path d="M2681 2867 c-53 -54 -97 -102 -99 -107 -2 -6 53 -10 140 -9 l143 1
99 104 98 103 -142 3 -142 3 -97 -98z"/>
<path d="M4440 2755 c-115 -115 -208 -210 -206 -212 1 -1 134 -3 296 -4 l293
-1 98 98 c67 67 95 101 86 106 -6 4 -67 8 -134 8 -91 0 -123 3 -123 12 0 7 41
54 92 105 l92 92 -143 3 -142 3 -209 -210z"/>
<path d="M830 2545 c-113 -113 -206 -209 -208 -215 -2 -6 46 -10 136 -10 l139
0 206 207 c113 114 204 210 201 215 -3 4 -65 8 -137 8 l-132 0 -205 -205z"/>
<path d="M1840 2639 l-105 -109 -155 0 -155 0 -313 -313 c-171 -171 -312 -315
-312 -320 0 -4 58 -7 129 -7 80 0 132 -4 136 -10 4 -6 -34 -53 -84 -104 -50
-51 -91 -95 -91 -99 0 -4 64 -6 143 -6 l142 2 99 103 100 104 -137 0 c-122 0
-137 2 -137 17 0 9 92 108 204 220 l204 203 146 0 c109 0 146 -3 146 -12 0 -7
-42 -54 -92 -105 l-93 -93 133 0 c112 0 134 -2 139 -16 4 -11 -51 -72 -188
-210 -107 -106 -195 -198 -197 -204 -2 -6 45 -10 136 -10 l139 0 204 205 c112
113 206 210 207 215 2 6 -49 10 -132 10 -75 0 -136 3 -136 8 0 4 41 48 90 97
50 49 90 93 90 97 0 5 -55 8 -122 8 -68 0 -130 5 -138 10 -12 8 26 50 187 212
111 111 200 205 197 210 -3 4 -67 7 -142 7 l-137 -2 -105 -108z"/>
<path d="M3106 2644 l-99 -104 131 0 c85 0 133 -4 138 -11 4 -6 -33 -50 -85
-103 -50 -50 -91 -95 -91 -99 0 -4 61 -7 135 -7 103 0 135 -3 135 -13 0 -7
-41 -53 -90 -102 l-91 -90 142 -5 143 -5 97 100 98 100 -127 3 c-70 1 -131 7
-136 12 -7 7 21 42 82 103 51 51 92 96 92 100 0 4 -61 7 -135 7 -103 0 -135 3
-135 13 0 7 40 53 89 101 50 49 88 93 85 98 -3 4 -67 8 -142 7 l-137 -1 -99
-104z"/>
<path d="M3716 2644 l-99 -104 131 0 c85 0 133 -4 138 -11 4 -6 -33 -50 -85
-103 -50 -50 -91 -95 -91 -99 0 -4 61 -7 135 -7 100 0 135 -3 135 -12 0 -7
-42 -54 -92 -105 l-93 -93 125 0 c69 0 132 -5 140 -10 12 -8 -3 -27 -77 -102
-51 -52 -93 -97 -93 -101 0 -4 58 -7 129 -7 84 0 132 -4 137 -11 4 -6 -33 -51
-85 -103 -50 -51 -88 -95 -85 -99 4 -4 68 -7 143 -6 l136 1 99 104 99 104
-131 0 c-85 0 -133 4 -138 11 -4 7 78 96 197 215 l204 204 -135 1 c-74 1 -203
0 -286 -1 -109 -1 -154 2 -159 10 -5 8 26 46 84 104 50 50 91 95 91 99 0 4
-58 7 -129 7 -84 0 -132 4 -137 11 -4 6 33 51 85 103 50 51 88 95 85 99 -4 4
-68 7 -143 6 l-136 -1 -99 -104z"/>
<path d="M0 2433 l0 -98 90 90 c49 49 90 93 90 97 0 5 -40 8 -90 8 l-90 0 0
-97z"/>
<path d="M2243 2431 c-51 -54 -93 -101 -93 -104 0 -4 58 -7 129 -7 72 0 132
-4 135 -8 3 -5 -38 -51 -90 -103 l-94 -94 162 -5 163 -6 198 196 c109 107 203
203 208 213 9 16 -8 17 -308 16 l-318 -1 -92 -97z"/>
<path d="M195 2218 l-100 -103 132 -5 c72 -3 135 -9 139 -13 4 -4 -37 -53 -91
-107 l-100 -100 147 0 147 0 93 96 c51 53 94 100 96 105 2 5 -53 9 -127 9 -97
0 -131 3 -131 12 0 7 42 54 92 105 l93 93 -125 0 c-69 0 -134 3 -145 6 -16 4
-42 -18 -120 -98z"/>
<path d="M9698 2213 l-103 -103 135 -1 c74 -1 200 -1 280 0 83 1 151 -3 160
-8 12 -9 -2 -28 -77 -103 -51 -52 -93 -97 -93 -101 0 -4 58 -7 129 -7 84 0
132 -4 137 -11 4 -6 -33 -50 -85 -103 -50 -50 -91 -95 -91 -99 0 -4 64 -7 143
-6 l142 1 99 104 99 104 -131 0 c-85 0 -133 4 -138 11 -4 6 33 50 85 103 50
50 91 95 91 99 0 4 -61 7 -135 7 -100 0 -135 3 -135 12 0 7 42 54 92 105 l93
93 -130 1 c-72 0 -205 1 -298 2 l-167 2 -102 -102z"/>
<path d="M2767 2002 c-53 -53 -97 -101 -97 -105 0 -4 58 -7 129 -7 84 0 132
-4 137 -11 4 -6 -33 -50 -85 -103 -50 -50 -91 -95 -91 -99 0 -4 132 -7 293 -7
l292 0 100 100 c54 54 96 102 93 105 -3 3 -129 6 -281 6 -188 -1 -278 3 -283
10 -3 6 32 50 80 98 47 47 86 92 86 99 0 9 -35 12 -138 12 l-137 0 -98 -98z"/>
<path d="M2140 1675 c-115 -115 -208 -211 -206 -212 2 -2 130 -4 284 -4 180 0
283 -3 287 -10 4 -5 -34 -52 -84 -103 -50 -51 -91 -95 -91 -99 0 -4 128 -7
285 -7 219 0 285 -3 285 -12 0 -7 -42 -54 -92 -105 l-93 -93 135 -1 c74 0 271
0 437 0 207 1 304 -2 308 -10 4 -6 -35 -54 -86 -107 l-94 -97 138 -3 c101 -2
137 -6 137 -15 0 -7 -40 -53 -89 -101 -50 -49 -88 -93 -85 -98 3 -4 67 -8 142
-7 l137 1 99 104 99 104 -131 0 c-85 0 -133 4 -138 11 -4 6 33 50 85 103 50
50 91 95 91 99 0 4 -61 7 -135 7 -100 0 -135 3 -135 12 0 7 42 54 92 105 l93
93 -125 0 c-69 0 -132 5 -140 10 -12 8 26 51 188 213 158 158 200 206 187 211
-9 3 -74 6 -143 6 l-126 0 -221 -220 -221 -220 -130 0 c-71 0 -136 5 -144 10
-12 8 3 27 78 102 50 52 92 97 92 101 0 4 -128 7 -283 7 -156 0 -287 3 -291 7
-3 4 35 48 85 99 52 52 89 97 85 103 -5 7 -51 11 -132 11 -91 0 -124 3 -124
12 0 7 41 54 92 105 l92 92 -143 3 -142 3 -209 -210z"/>
<path d="M5001 1787 c-53 -54 -97 -103 -99 -108 -2 -5 54 -9 135 -9 l138 0
104 104 105 105 -144 3 -144 3 -95 -98z"/>
<path d="M0 1566 c0 -82 3 -105 15 -109 19 -8 218 195 202 205 -7 4 -58 8
-114 8 l-103 0 0 -104z"/>
<path d="M460 1565 l-105 -105 133 0 c112 0 134 -2 139 -16 4 -11 -51 -73
-190 -212 -108 -108 -195 -197 -194 -198 1 -1 64 -4 140 -5 l139 -3 209 209
209 210 -132 3 c-73 1 -137 7 -142 12 -6 6 26 45 83 103 72 74 89 96 76 101
-9 3 -71 6 -138 6 l-122 0 -105 -105z"/>
<path d="M4370 1465 c-113 -113 -206 -209 -208 -215 -2 -6 45 -10 132 -10 96
0 136 -3 136 -12 0 -6 -90 -102 -200 -212 l-201 -201 136 -3 c99 -2 135 -6
135 -15 0 -7 -40 -53 -89 -101 -50 -49 -88 -93 -85 -98 3 -4 63 -8 135 -8 95
0 129 -3 129 -12 0 -7 -42 -54 -92 -105 l-93 -93 132 0 c86 0 134 -4 139 -11
4 -6 -33 -50 -85 -103 -50 -50 -91 -95 -91 -99 0 -4 61 -7 135 -7 100 0 135
-3 135 -12 0 -7 -30 -43 -67 -80 l-67 -68 300 0 300 0 69 70 c38 38 66 72 63
75 -3 4 -127 6 -275 6 -148 0 -275 4 -283 9 -11 7 6 30 80 107 l95 98 -130 3
c-71 1 -134 7 -139 12 -7 7 21 42 82 103 51 51 92 96 92 100 0 4 -61 7 -135 7
-94 0 -135 3 -135 11 0 7 41 54 92 105 l92 94 -132 0 c-85 0 -133 4 -138 11
-4 7 78 96 197 215 l204 204 -133 0 c-112 0 -134 3 -139 16 -4 11 52 73 191
212 134 134 192 198 183 204 -6 4 -68 8 -137 8 l-125 0 -205 -205z"/>
<path d="M6915 1570 c-54 -54 -97 -101 -94 -104 2 -2 66 -6 142 -7 l139 -2 99
99 c67 67 95 101 86 106 -6 4 -71 8 -142 8 l-130 0 -100 -100z"/>
<path d="M1467 1352 c-53 -53 -97 -101 -97 -105 0 -4 70 -7 155 -7 109 0 155
-3 155 -11 0 -7 -41 -54 -92 -105 l-92 -94 125 0 c68 0 131 -5 139 -10 12 -8
-3 -27 -77 -102 -51 -52 -93 -97 -93 -101 0 -4 58 -7 129 -7 84 0 132 -4 137
-11 4 -6 -33 -51 -85 -103 -50 -51 -88 -95 -85 -99 4 -4 65 -7 136 -7 70 0
128 -3 128 -7 0 -4 -41 -49 -92 -100 -51 -51 -90 -94 -87 -97 2 -2 66 -6 142
-7 l139 -2 314 314 c173 173 314 317 314 321 0 5 -64 8 -142 8 l-142 0 -111
-110 -112 -110 -136 0 c-89 0 -138 4 -143 11 -4 7 76 94 192 210 109 109 196
201 192 204 -3 3 -131 7 -284 8 -214 1 -279 5 -279 14 0 7 34 48 75 90 121
125 128 113 -61 113 l-164 0 -98 -98z"/>
<path d="M4863 1351 c-51 -54 -93 -100 -93 -104 0 -4 61 -7 135 -7 96 0 135
-3 135 -12 0 -6 -90 -102 -200 -212 l-200 -201 135 -3 c99 -2 135 -6 135 -15
0 -7 -40 -53 -89 -101 -50 -49 -88 -93 -85 -98 3 -4 63 -8 135 -8 95 0 129 -3
129 -12 0 -7 -42 -54 -92 -105 l-93 -93 140 0 c77 -1 206 -1 287 0 96 1 149
-3 153 -10 4 -6 -33 -52 -84 -104 -50 -51 -91 -95 -91 -99 0 -4 64 -7 143 -6
l142 1 99 104 99 104 -136 0 c-102 0 -137 3 -137 12 0 7 89 102 197 210 108
109 195 200 191 203 -3 3 -129 6 -281 6 -183 -1 -278 3 -283 10 -3 6 36 54 87
107 l94 97 -137 3 c-102 2 -138 6 -138 15 0 7 41 53 90 102 l91 90 -132 5
c-96 4 -134 9 -137 18 -2 7 38 55 89 107 l93 95 -150 -1 -149 -2 -92 -96z"/>
<path d="M946 1134 l-99 -104 124 0 c68 0 131 -5 139 -10 12 -8 -3 -27 -77
-102 -51 -52 -93 -97 -93 -101 0 -4 67 -7 149 -7 94 0 152 -4 156 -10 4 -6
-34 -53 -84 -104 -50 -51 -88 -96 -84 -99 3 -4 64 -7 135 -7 70 0 128 -3 128
-8 0 -4 -43 -50 -95 -102 l-95 -95 142 -5 143 -5 98 95 c53 52 97 100 97 107
0 10 -32 13 -130 13 -98 0 -130 3 -130 13 0 7 41 53 90 102 l91 90 -132 5
c-96 4 -134 9 -137 18 -2 7 38 55 89 107 l93 95 -157 0 c-118 0 -157 3 -157
12 0 7 42 54 92 105 l93 93 -125 0 c-69 0 -134 2 -145 4 -15 3 -45 -22 -119
-100z"/>
<path d="M5566 1133 l-99 -103 131 -1 c73 -1 137 -2 143 -3 6 -1 55 44 110 99
84 85 95 100 76 102 -12 1 -76 4 -142 5 l-120 3 -99 -102z"/>
<path d="M6485 1140 c-52 -53 -95 -99 -95 -103 0 -4 56 -7 125 -7 165 0 166
-3 44 -126 l-94 -94 136 0 c75 0 139 -3 143 -7 3 -4 -35 -48 -85 -99 -52 -52
-89 -97 -85 -103 5 -7 51 -11 132 -11 91 0 124 -3 124 -12 0 -7 -42 -54 -92
-105 l-93 -93 138 0 c121 0 137 -2 137 -17 0 -9 -38 -54 -85 -101 -47 -46 -85
-88 -85 -93 0 -5 62 -9 138 -9 l137 0 105 105 105 105 -137 0 c-84 0 -139 4
-143 10 -4 6 34 53 84 104 50 51 91 95 91 99 0 4 -58 7 -128 7 -71 0 -132 3
-136 7 -4 4 37 51 91 105 l98 98 -130 0 c-72 0 -137 5 -145 10 -11 7 28 52
187 212 111 111 201 203 199 205 -1 1 -134 4 -294 5 l-292 3 -95 -95z"/>
<path d="M7700 1129 l-105 -109 -160 -1 -160 -2 -99 -103 -100 -104 292 0
c227 0 292 -3 292 -12 0 -7 -90 -103 -200 -213 l-200 -200 135 -3 c120 -2 135
-4 135 -20 0 -9 -77 -93 -171 -187 l-171 -170 450 -3 449 -2 71 72 c39 40 69
74 67 76 -1 2 -124 3 -273 3 -196 0 -274 3 -286 12 -15 11 -4 25 87 115 l104
102 304 -1 304 -1 95 97 c52 53 97 100 98 106 2 5 -107 9 -282 9 -220 0 -286
3 -286 12 0 7 42 54 92 105 l93 93 -135 1 c-74 0 -203 0 -286 -1 -108 -1 -154
2 -159 10 -5 8 67 87 196 216 l204 204 -125 0 c-69 0 -134 2 -145 4 -15 3 -47
-23 -125 -105z"/>
<path d="M0 1173 l0 -57 55 54 c30 30 55 56 55 57 0 2 -25 3 -55 3 l-55 0 0
-57z"/>
<path d="M5956 914 l-99 -104 136 0 c102 0 137 -3 137 -12 0 -7 -89 -102 -197
-210 -108 -109 -195 -199 -192 -202 2 -2 66 -6 142 -7 l139 -2 204 204 c112
112 204 207 204 211 0 5 -55 8 -122 8 -68 0 -130 4 -137 9 -12 8 5 30 77 103
51 52 92 97 92 101 0 4 -64 7 -142 6 l-143 -1 -99 -104z"/>
<path d="M0 698 l0 -108 40 0 c22 0 40 -4 40 -9 0 -5 -18 -25 -40 -45 -38 -34
-40 -39 -40 -96 l0 -60 79 0 c46 0 83 -5 86 -11 4 -6 -32 -49 -79 -97 -47 -47
-86 -92 -86 -99 0 -10 28 -13 123 -13 68 0 127 -3 131 -7 3 -4 -26 -40 -66
-80 l-72 -73 324 1 325 1 69 74 70 74 -130 1 c-71 1 -199 1 -285 -1 -160 -2
-199 2 -199 23 0 6 42 53 92 104 l93 93 -138 0 c-104 0 -137 3 -137 13 0 7 44
56 98 110 l97 97 148 0 c81 0 147 -3 147 -7 0 -4 -44 -51 -97 -105 l-97 -97
165 -3 164 -3 98 96 c53 52 97 100 97 107 0 9 -40 12 -150 12 -112 0 -150 3
-150 12 0 7 42 54 92 105 l93 93 -130 0 c-72 1 -275 2 -453 3 l-322 2 0 -107z"/>
<path d="M2694 709 c-55 -56 -94 -102 -90 -108 5 -8 93 -11 287 -11 153 0 279
-3 279 -7 0 -4 -41 -49 -92 -100 -51 -51 -90 -94 -87 -97 2 -2 66 -6 142 -7
l139 -2 98 98 c55 54 97 102 94 107 -3 4 -63 8 -135 8 -95 0 -129 3 -129 12 0
7 42 54 92 105 l93 93 -135 1 c-74 0 -208 1 -298 2 l-162 2 -96 -96z"/>
<path d="M3732 370 l-157 -5 -92 -96 c-51 -52 -93 -98 -93 -102 0 -4 128 -7
285 -7 200 0 285 -3 285 -11 0 -6 -30 -42 -67 -80 l-66 -69 149 1 149 1 69 74
70 74 -121 0 c-124 0 -153 4 -153 22 0 6 41 53 91 104 l92 93 -142 3 c-78 2
-212 1 -299 -2z"/>
<path d="M8681 277 c-53 -54 -97 -102 -99 -107 -2 -6 53 -10 140 -9 l143 1 99
104 98 103 -142 3 -142 3 -97 -98z"/>
<path d="M2243 259 l-112 -111 -148 3 -148 3 -74 -77 -74 -77 299 0 299 0 178
178 c97 97 177 181 177 185 0 4 -64 7 -142 7 l-143 0 -112 -111z"/>
<path d="M6232 277 c-50 -51 -92 -98 -92 -105 0 -9 34 -12 130 -12 96 0 130
-3 130 -12 0 -7 -30 -43 -67 -80 l-67 -68 146 0 146 0 70 73 71 72 -129 5
c-70 3 -132 9 -136 13 -4 4 33 49 84 100 51 51 92 96 92 100 0 4 -64 7 -143 7
l-142 0 -93 -93z"/>
<path d="M1151 80 l-74 -80 149 1 149 1 69 74 70 74 -116 0 c-64 0 -128 2
-144 5 -26 4 -38 -5 -103 -75z"/>
<path d="M2680 85 c-39 -39 -70 -74 -70 -78 0 -4 134 -6 298 -6 l297 1 69 74
70 74 -130 1 c-71 0 -204 1 -297 2 l-167 2 -70 -70z"/>
<path d="M5731 80 l-74 -80 149 1 149 1 69 74 70 74 -116 0 c-64 0 -128 2
-144 5 -26 4 -38 -5 -103 -75z"/>
</g>
</svg>
